<svg width="100" height="100" viewBox="0 0 100 100" fill="none" xmlns="http://www.w3.org/2000/svg">
<path d="M54.4188 9.37499C53.2467 8.2033 51.6573 7.54507 50 7.54507C48.3427 7.54507 46.7533 8.2033 45.5813 9.37499L4.03751 50.9125C3.74696 51.203 3.51648 51.548 3.35924 51.9276C3.202 52.3072 3.12106 52.7141 3.12106 53.125C3.12106 53.5359 3.202 53.9428 3.35924 54.3224C3.51648 54.702 3.74696 55.0469 4.03751 55.3375C4.6243 55.9243 5.42016 56.2539 6.25001 56.2539C6.66091 56.2539 7.06779 56.173 7.44741 56.0158C7.82703 55.8585 8.17196 55.628 8.46251 55.3375L50 13.7937L91.5375 55.3375C92.1243 55.9243 92.9202 56.2539 93.75 56.2539C94.5799 56.2539 95.3757 55.9243 95.9625 55.3375C96.5493 54.7507 96.879 53.9548 96.879 53.125C96.879 52.2951 96.5493 51.4993 95.9625 50.9125L81.25 36.2062V15.625C81.25 14.7962 80.9208 14.0013 80.3347 13.4153C79.7487 12.8292 78.9538 12.5 78.125 12.5H71.875C71.0462 12.5 70.2513 12.8292 69.6653 13.4153C69.0792 14.0013 68.75 14.7962 68.75 15.625V23.7062L54.4188 9.37499Z" fill="#4F85A3"/>
<path d="M50 20.5812L87.5 58.0812V84.375C87.5 86.8614 86.5123 89.246 84.7541 91.0041C82.996 92.7623 80.6114 93.75 78.125 93.75H21.875C19.3886 93.75 17.004 92.7623 15.2459 91.0041C13.4877 89.246 12.5 86.8614 12.5 84.375V58.0812L50 20.5812Z" fill="#4F85A3"/>
</svg>
