<svg width="79" height="82" viewBox="0 0 79 82" fill="none" xmlns="http://www.w3.org/2000/svg">
<path fill-rule="evenodd" clip-rule="evenodd" d="M51.8438 17.9375C51.8438 14.5394 50.5433 11.2805 48.2283 8.87769C45.9134 6.47488 42.7738 5.125 39.5 5.125C36.2262 5.125 33.0866 6.47488 30.7717 8.87769C28.4567 11.2805 27.1563 14.5394 27.1562 17.9375V20.5H51.8438V17.9375ZM56.7812 17.9375V20.5H74.0625V71.75C74.0625 74.4685 73.0221 77.0756 71.1702 78.9978C69.3183 80.9201 66.8065 82 64.1875 82H14.8125C12.1935 82 9.68174 80.9201 7.82982 78.9978C5.9779 77.0756 4.9375 74.4685 4.9375 71.75V20.5H22.2188V17.9375C22.2188 13.1802 24.0394 8.61771 27.2803 5.25377C30.5212 1.88984 34.9167 0 39.5 0C44.0833 0 48.4788 1.88984 51.7197 5.25377C54.9606 8.61771 56.7812 13.1802 56.7812 17.9375ZM41.9688 41C41.9688 40.3204 41.7087 39.6686 41.2457 39.188C40.7827 38.7075 40.1548 38.4375 39.5 38.4375C38.8452 38.4375 38.2173 38.7075 37.7543 39.188C37.2914 39.6686 37.0312 40.3204 37.0312 41V48.6875H29.625C28.9702 48.6875 28.3423 48.9575 27.8793 49.438C27.4164 49.9186 27.1562 50.5704 27.1562 51.25C27.1562 51.9296 27.4164 52.5814 27.8793 53.062C28.3423 53.5425 28.9702 53.8125 29.625 53.8125H37.0312V61.5C37.0312 62.1796 37.2914 62.8314 37.7543 63.312C38.2173 63.7925 38.8452 64.0625 39.5 64.0625C40.1548 64.0625 40.7827 63.7925 41.2457 63.312C41.7087 62.8314 41.9688 62.1796 41.9688 61.5V53.8125H49.375C50.0298 53.8125 50.6577 53.5425 51.1207 53.062C51.5837 52.5814 51.8438 51.9296 51.8438 51.25C51.8438 50.5704 51.5837 49.9186 51.1207 49.438C50.6577 48.9575 50.0298 48.6875 49.375 48.6875H41.9688V41Z" fill="#4F85A3"/>
</svg>
