<svg width="71" height="66" viewBox="0 0 71 66" fill="none" xmlns="http://www.w3.org/2000/svg">
<path d="M26.625 51.5625C26.625 51.0155 26.8588 50.4909 27.2749 50.1041C27.691 49.7173 28.2553 49.5 28.8438 49.5H42.1563C42.7447 49.5 43.3091 49.7173 43.7252 50.1041C44.1413 50.4909 44.375 51.0155 44.375 51.5625C44.375 52.1095 44.1413 52.6341 43.7252 53.0209C43.3091 53.4077 42.7447 53.625 42.1563 53.625H28.8438C28.2553 53.625 27.691 53.4077 27.2749 53.0209C26.8588 52.6341 26.625 52.1095 26.625 51.5625ZM13.3125 33.2558C13.3125 27.885 18.7928 23.7806 24.5394 24.2798C31.8307 24.9119 39.1694 24.9119 46.4606 24.2798C52.2072 23.7806 57.6875 27.885 57.6875 33.2558V38.0284C57.7083 38.9417 57.3779 39.8319 56.7556 40.539C56.1333 41.246 55.26 41.7234 54.2928 41.8853C50.5431 42.4916 43.9091 43.3125 35.5 43.3125C27.091 43.3125 20.4569 42.4875 16.7072 41.8853C15.74 41.7234 14.8667 41.246 14.2444 40.539C13.6221 39.8319 13.2917 38.9417 13.3125 38.0284V33.2558ZM33.4676 29.8444C33.2947 29.817 33.1173 29.8282 32.9499 29.877C32.7825 29.9257 32.6299 30.0107 32.5047 30.1249L28.4222 33.8374C25.6455 33.6826 22.876 33.4308 20.1196 33.0825C19.834 33.0561 19.5485 33.1337 19.3231 33.2989C19.0977 33.4641 18.95 33.704 18.9109 33.9683C18.8718 34.2327 18.9445 34.5008 19.1136 34.7164C19.2828 34.9319 19.5352 35.0782 19.8179 35.1244C22.2585 35.4379 25.2849 35.739 28.7816 35.9205C28.9357 35.9286 29.0898 35.9067 29.2342 35.8563C29.3786 35.8058 29.5101 35.728 29.6203 35.6276L32.9662 32.5916L36.7248 39.6454C36.8039 39.7934 36.9202 39.9215 37.0638 40.0189C37.2074 40.1164 37.3741 40.1804 37.5498 40.2055C37.7255 40.2305 37.9052 40.216 38.0736 40.163C38.242 40.11 38.3942 40.0202 38.5175 39.9011L42.6533 35.8999C45.5059 35.7436 48.351 35.4849 51.1821 35.1244C51.4648 35.0782 51.7173 34.9319 51.8864 34.7164C52.0555 34.5008 52.1282 34.2327 52.0891 33.9683C52.0501 33.704 51.9023 33.4641 51.6769 33.2989C51.4515 33.1337 51.166 33.0561 50.8804 33.0825C48.493 33.3878 45.5243 33.6806 42.0941 33.8621C41.8149 33.8766 41.5518 33.9885 41.3575 34.1756L38.0116 37.4138L34.2753 30.4013C34.1973 30.2559 34.0836 30.1296 33.9432 30.0329C33.8029 29.9361 33.6399 29.8715 33.4676 29.8444Z" fill="white"/>
<path d="M37.7188 7.69735C38.5647 7.24333 39.2259 6.5425 39.5997 5.70357C39.9735 4.86464 40.0391 3.93448 39.7863 3.05737C39.5335 2.18026 38.9764 1.40521 38.2014 0.852417C37.4264 0.299629 36.4768 0 35.5 0C34.5232 0 33.5736 0.299629 32.7986 0.852417C32.0236 1.40521 31.4665 2.18026 31.2137 3.05737C30.9609 3.93448 31.0265 4.86464 31.4003 5.70357C31.7741 6.5425 32.4353 7.24333 33.2812 7.69735V12.3751H24.4062C19.1102 12.3751 14.0311 14.3308 10.2862 17.8119C6.54134 21.2931 4.4375 26.0145 4.4375 30.9376V33.0001C3.2606 33.0001 2.13191 33.4347 1.29971 34.2083C0.467521 34.9819 0 36.0311 0 37.1251L0 45.3751C0 46.4691 0.467521 47.5183 1.29971 48.2919C2.13191 49.0655 3.2606 49.5001 4.4375 49.5001V53.6251C4.4375 55.8131 5.37254 57.9116 7.03693 59.4587C8.70131 61.0059 10.9587 61.8751 13.3125 61.8751H57.6875C60.0413 61.8751 62.2987 61.0059 63.9631 59.4587C65.6275 57.9116 66.5625 55.8131 66.5625 53.6251V49.5001C67.7394 49.5001 68.8681 49.0655 69.7003 48.2919C70.5325 47.5183 71 46.4691 71 45.3751V37.1251C71 36.0311 70.5325 34.9819 69.7003 34.2083C68.8681 33.4347 67.7394 33.0001 66.5625 33.0001V30.9376C66.5625 26.0145 64.4587 21.2931 60.7138 17.8119C56.9689 14.3308 51.8898 12.3751 46.5938 12.3751H37.7188V7.69735ZM62.125 30.9376V53.6251C62.125 54.7191 61.6575 55.7683 60.8253 56.5419C59.9931 57.3155 58.8644 57.7501 57.6875 57.7501H13.3125C12.1356 57.7501 11.0069 57.3155 10.1747 56.5419C9.34252 55.7683 8.875 54.7191 8.875 53.6251V30.9376C8.875 27.1085 10.5113 23.4363 13.424 20.7288C16.3367 18.0212 20.2871 16.5001 24.4062 16.5001H46.5938C50.7129 16.5001 54.6633 18.0212 57.576 20.7288C60.4887 23.4363 62.125 27.1085 62.125 30.9376Z" fill="white"/>
</svg>
