<svg width="75" height="94" viewBox="0 0 75 94" fill="none" xmlns="http://www.w3.org/2000/svg">
<path d="M9.37921 15.625C5.54171 10.1 8.91671 3.3625 14.7417 0L37.5042 38.9125L60.2667 0C66.0917 3.3625 69.4667 10.1 65.6292 15.625L42.5667 47.5625L52.2917 64.1937C55.7376 62.4386 59.712 62.0236 63.4462 63.0292C67.1804 64.0347 70.409 66.3893 72.5076 69.6375C74.6062 72.8857 75.4256 76.7968 74.8075 80.6143C74.1893 84.4317 72.1775 87.8843 69.1611 90.3043C66.1447 92.7243 62.338 93.9397 58.4773 93.7154C54.6166 93.4912 50.9763 91.8432 48.2603 89.0903C45.5444 86.3373 43.9458 82.675 43.7738 78.8116C43.6018 74.9483 44.8686 71.1584 47.3292 68.175L37.5042 54.5625L27.6792 68.1687C30.1398 71.1521 31.4066 74.942 31.2346 78.8054C31.0626 82.6687 29.464 86.3311 26.7481 89.084C24.0321 91.8369 20.3918 93.4849 16.5311 93.7092C12.6704 93.9334 8.86377 92.718 5.84735 90.298C2.83093 87.8781 0.819087 84.4255 0.200944 80.608C-0.417199 76.7906 0.402277 72.8795 2.50087 69.6313C4.59947 66.383 7.82807 64.0285 11.5622 63.0229C15.2964 62.0174 19.2708 62.4323 22.7167 64.1875L32.4417 47.5625L9.37921 15.625ZM25.0042 78.125C25.0042 75.6386 24.0165 73.254 22.2583 71.4959C20.5002 69.7377 18.1156 68.75 15.6292 68.75C13.1428 68.75 10.7582 69.7377 9.00009 71.4959C7.24193 73.254 6.25421 75.6386 6.25421 78.125C6.25421 80.6114 7.24193 82.996 9.00009 84.7541C10.7582 86.5123 13.1428 87.5 15.6292 87.5C18.1156 87.5 20.5002 86.5123 22.2583 84.7541C24.0165 82.996 25.0042 80.6114 25.0042 78.125ZM68.7542 78.125C68.7542 75.6386 67.7665 73.254 66.0083 71.4959C64.2502 69.7377 61.8656 68.75 59.3792 68.75C56.8928 68.75 54.5082 69.7377 52.7501 71.4959C50.9919 73.254 50.0042 75.6386 50.0042 78.125C50.0042 80.6114 50.9919 82.996 52.7501 84.7541C54.5082 86.5123 56.8928 87.5 59.3792 87.5C61.8656 87.5 64.2502 86.5123 66.0083 84.7541C67.7665 82.996 68.7542 80.6114 68.7542 78.125Z" fill="#4F85A3"/>
</svg>
